<?xml version="1.0" standalone="no"?>
<!DOCTYPE svg PUBLIC "-//W3C//DTD SVG 20010904//EN"
 "http://www.w3.org/TR/2001/REC-SVG-20010904/DTD/svg10.dtd">
<svg version="1.0" xmlns="http://www.w3.org/2000/svg"
 width="300.000000pt" height="300.000000pt" viewBox="0 0 300.000000 300.000000"
 preserveAspectRatio="xMidYMid meet">
<metadata>
Created by potrace 1.14, written by Peter Selinger 2001-2017
</metadata>
<g transform="translate(0.000000,300.000000) scale(0.100000,-0.100000)"
fill="#000000" stroke="none">
<path d="M1265 2964 c-49 -7 -101 -17 -115 -20 -14 -4 -30 -8 -37 -10 -32 -6
-149 -48 -160 -57 -7 -5 -13 -7 -13 -4 0 8 -110 -47 -186 -94 -132 -80 -233
-164 -352 -293 -47 -50 -65 -55 -162 -45 l-35 4 -1 -65 c-1 -36 4 -78 11 -95
11 -27 8 -37 -31 -116 -69 -137 -125 -303 -140 -414 -3 -22 -10 -60 -14 -85
-8 -42 -6 -343 3 -385 2 -11 7 -40 11 -65 4 -25 14 -67 22 -94 9 -32 10 -54 4
-66 -15 -28 -32 -112 -31 -156 2 -174 118 -323 303 -392 40 -15 75 -39 115
-78 171 -166 377 -293 591 -363 160 -52 257 -66 462 -66 168 0 209 3 300 23
311 70 555 205 780 433 30 31 71 62 90 69 98 37 184 116 242 219 39 71 48 133
30 212 -18 81 -18 77 6 184 32 137 36 178 37 330 0 225 -15 323 -81 513 -24
70 -92 218 -124 269 -12 18 -11 30 4 80 10 33 16 80 14 108 -3 52 -4 53 -58
42 -14 -3 -50 -1 -80 5 -51 8 -62 16 -146 97 -190 182 -423 301 -711 362 -126
27 -414 34 -548 13z"/>
</g>
</svg>
